<svg width="102" height="102" viewBox="0 0 102 102" fill="none" xmlns="http://www.w3.org/2000/svg">
<path d="M62.9694 91.9706C64.8178 91.355 66.6662 90.7394 68.5146 89.8776L71.5953 96.526C73.1973 95.7873 74.7992 94.9255 76.4012 94.0636L72.5812 87.6614C72.3347 87.7845 70.363 88.8926 70.2398 89.0157L66.543 82.6135C64.6946 83.4753 62.8462 84.3372 60.8745 84.8296L62.9694 91.9706Z" fill="#FF661C"/>
<path d="M93.7764 54.0497C93.7764 53.4341 93.7764 52.6954 93.8996 52.0798L101.293 52.326C101.293 51.7104 101.293 51.0948 101.293 50.4792C101.293 49.8636 101.293 49.248 101.293 48.6324L93.8996 48.8786C93.8996 48.263 93.8996 47.5243 93.7764 46.9087L86.3827 47.5243C86.2595 45.5544 85.8898 43.7076 85.3969 41.7377L92.5441 40.014C92.0512 37.921 91.3118 35.8279 90.4492 33.858L97.2267 31.0262C96.4874 29.4257 95.748 27.702 94.8854 26.1014L88.3543 29.6719C88.8472 30.4106 89.2169 31.2725 89.5866 32.1343L82.9323 35.2123C81.8233 32.7499 80.8374 30.9031 79.1122 28.8101L84.904 24.2546C85.3969 24.8702 85.3969 25.1165 85.8898 25.7321L92.0512 21.4229C90.6957 19.453 89.0937 17.6062 87.4917 15.7594L82.0697 20.8073C82.5626 21.4229 82.5626 21.4229 83.0555 22.0385L77.5103 27.0864C76.278 25.609 75.4154 24.7471 73.9367 23.5159L78.7426 17.9755C79.1123 18.3449 79.4819 18.7142 79.9748 19.0836L85.0272 13.6663C82.8091 11.5733 80.4678 9.72648 77.88 8.12592L73.9367 14.2819C71.7186 12.8045 70.2398 11.8195 67.7753 10.8346L64.941 17.7293C64.5714 17.6062 63.3391 17.1137 62.9694 16.9906L65.5572 10.0958C64.5714 9.72648 63.5855 9.48024 62.5997 9.11088L64.6946 2.09304C62.9694 1.60056 61.121 1.2312 59.3958 0.86184L58.1635 8.12592C57.4242 8.0028 56.808 7.87968 56.0686 7.75656L55.0828 15.0206C54.7131 15.0206 53.2344 14.8975 52.8647 14.8975L53.6041 7.51032C52.7415 7.51032 52.8647 7.3872 52.0021 7.3872L52.2486 0C51.7557 0 51.1395 0 50.6466 0C22.6739 0 0 22.6541 0 50.6023C0 78.4274 22.6739 101.205 50.6466 101.205C51.1395 101.205 51.386 101.205 51.8789 101.205L51.6325 93.8174C52.3718 93.8174 53.3576 93.8174 54.2202 93.6943L55.0828 101.082C55.4525 101.082 58.7797 100.589 59.0261 100.589L57.4242 93.325C57.1777 93.325 55.4525 93.5712 54.5899 93.6943L53.8505 86.3071C52.7415 86.4302 51.6324 86.4302 50.5234 86.4302V79.043C34.8735 78.9199 22.181 66.2385 22.181 50.6023C22.181 34.9661 34.8735 22.1616 50.6466 22.1616C55.0828 22.1616 59.3958 23.1466 63.3391 25.1165L66.6662 18.468C67.1591 18.7142 68.7611 19.5761 69.254 19.9454L65.8036 26.4708C70.6095 29.5488 74.4296 33.9811 76.7709 39.1522L83.5485 36.1973C83.7949 36.6898 84.5343 38.7828 84.6575 39.2753L77.88 41.9839C78.7426 44.6926 79.2355 47.6474 79.2355 50.4792C79.2355 55.7734 77.7567 61.0675 74.9225 65.4998L81.2071 69.4397C80.3445 70.794 79.3587 72.1483 78.2496 73.5026L83.9181 78.1812C83.4252 78.7968 82.9323 79.4124 82.4394 79.9049L87.8614 84.9528C89.9563 82.7366 91.8047 80.3974 93.4067 77.8118L87.2453 73.7489C88.4776 71.9021 89.5866 69.809 90.4492 67.716L83.6717 64.5149C83.7949 64.1455 84.5343 62.6681 84.6575 62.2987L91.6815 64.7611C91.9279 64.0224 92.1744 63.2837 92.4209 62.545L99.4448 64.638C99.9377 62.9143 100.431 61.1906 100.677 59.3438L93.4067 57.9895C93.5299 57.0046 93.7764 57.0046 93.7764 56.1427L86.3827 55.2809C86.3827 54.9115 86.5059 53.5572 86.5059 53.1878L93.7764 54.0497Z" fill="#FF661C"/>
<path d="M78.7426 83.2291L73.9367 77.6887C72.458 78.9199 71.5954 79.6586 69.9934 80.6436L66.0501 74.3645C65.6804 74.6107 62.9694 76.2113 62.9694 76.2113L66.543 82.7366C66.543 82.7366 69.1308 81.3823 69.254 81.2592L73.0741 87.5383C74.6761 86.5534 76.1548 85.4453 77.5103 84.3372L82.193 90.1238C83.1788 89.3851 84.0414 88.5233 84.904 87.7846L79.8516 82.3673C79.6052 82.4904 79.1123 82.8598 78.7426 83.2291Z" fill="#FF661C"/>
</svg>
